<?xml version="1.0" encoding="UTF-8" ?>
<svg version="1.1" width="32" height="32" xmlns="http://www.w3.org/2000/svg" shape-rendering="crispEdges">
<rect x="13" y="3" width="8" height="1" fill="#000000" />
<rect x="11" y="4" width="2" height="1" fill="#000000" />
<rect x="13" y="4" width="8" height="1" fill="#8297AD" />
<rect x="21" y="4" width="2" height="1" fill="#000000" />
<rect x="10" y="5" width="1" height="21" fill="#000000" />
<rect x="11" y="5" width="5" height="2" fill="#8297AD" />
<rect x="16" y="5" width="2" height="1" fill="#000000" />
<rect x="18" y="5" width="5" height="2" fill="#8297AD" />
<rect x="23" y="5" width="1" height="21" fill="#000000" />
<rect x="16" y="6" width="2" height="1" fill="#8297AD" />
<rect x="11" y="7" width="2" height="19" fill="#8297AD" />
<rect x="13" y="7" width="8" height="1" fill="#000000" />
<rect x="21" y="7" width="2" height="19" fill="#8297AD" />
<rect x="13" y="8" width="1" height="15" fill="#000000" />
<rect x="14" y="8" width="6" height="2" fill="#007AF8" />
<rect x="20" y="8" width="1" height="15" fill="#000000" />
<rect x="14" y="10" width="1" height="12" fill="#00A6F8" />
<rect x="15" y="10" width="5" height="2" fill="#007AF8" />
<rect x="15" y="12" width="1" height="10" fill="#00A6F8" />
<rect x="16" y="12" width="4" height="1" fill="#007AF8" />
<rect x="16" y="13" width="1" height="9" fill="#00A6F8" />
<rect x="17" y="13" width="3" height="2" fill="#007AF8" />
<rect x="17" y="15" width="1" height="7" fill="#00A6F8" />
<rect x="18" y="15" width="2" height="2" fill="#007AF8" />
<rect x="18" y="17" width="1" height="5" fill="#00A6F8" />
<rect x="19" y="17" width="1" height="4" fill="#007AF8" />
<rect x="19" y="21" width="1" height="1" fill="#00A6F8" />
<rect x="14" y="22" width="6" height="1" fill="#000000" />
<rect x="13" y="23" width="8" height="1" fill="#8297AD" />
<rect x="13" y="24" width="3" height="3" fill="#8297AD" />
<rect x="16" y="24" width="2" height="2" fill="#FFF9F9" />
<rect x="18" y="24" width="3" height="3" fill="#8297AD" />
<rect x="11" y="26" width="2" height="1" fill="#000000" />
<rect x="16" y="26" width="2" height="1" fill="#8297AD" />
<rect x="21" y="26" width="2" height="1" fill="#000000" />
<rect x="13" y="27" width="8" height="1" fill="#000000" />
</svg>