<?xml version="1.0" encoding="UTF-8" ?>
<svg version="1.1" width="128" height="128" xmlns="http://www.w3.org/2000/svg" shape-rendering="crispEdges">
<rect x="63" y="10" width="14" height="4" fill="#000000" />
<rect x="63" y="14" width="3" height="14" fill="#000000" />
<rect x="66" y="14" width="7" height="3" fill="#FB521B" />
<rect x="73" y="14" width="4" height="6" fill="#000000" />
<rect x="66" y="17" width="3" height="3" fill="#FB521B" />
<rect x="69" y="17" width="4" height="3" fill="#000000" />
<rect x="66" y="20" width="3" height="8" fill="#000000" />
<rect x="59" y="28" width="6" height="3" fill="#000000" />
<rect x="65" y="28" width="2" height="17" fill="#FD5621" />
<rect x="67" y="28" width="6" height="3" fill="#000000" />
<rect x="56" y="31" width="7" height="3" fill="#000000" />
<rect x="63" y="31" width="2" height="14" fill="#FD5621" />
<rect x="67" y="31" width="3" height="14" fill="#FD5621" />
<rect x="70" y="31" width="6" height="3" fill="#000000" />
<rect x="26" y="34" width="14" height="3" fill="#000000" />
<rect x="56" y="34" width="4" height="4" fill="#000000" />
<rect x="60" y="34" width="3" height="11" fill="#FD5621" />
<rect x="70" y="34" width="3" height="11" fill="#FD5621" />
<rect x="73" y="34" width="3" height="4" fill="#000000" />
<rect x="95" y="34" width="12" height="3" fill="#000000" />
<rect x="53" y="35" width="3" height="6" fill="#000000" />
<rect x="76" y="35" width="3" height="6" fill="#000000" />
<rect x="26" y="37" width="3" height="15" fill="#000000" />
<rect x="29" y="37" width="8" height="4" fill="#FB521B" />
<rect x="37" y="37" width="3" height="7" fill="#000000" />
<rect x="95" y="37" width="3" height="15" fill="#000000" />
<rect x="98" y="37" width="6" height="4" fill="#FB521B" />
<rect x="104" y="37" width="3" height="7" fill="#000000" />
<rect x="50" y="38" width="3" height="7" fill="#000000" />
<rect x="56" y="38" width="4" height="7" fill="#FD5621" />
<rect x="73" y="38" width="3" height="7" fill="#FD5621" />
<rect x="79" y="38" width="3" height="7" fill="#000000" />
<rect x="29" y="41" width="8" height="3" fill="#000000" />
<rect x="53" y="41" width="3" height="4" fill="#FD5621" />
<rect x="76" y="41" width="3" height="4" fill="#FD5621" />
<rect x="98" y="41" width="6" height="3" fill="#000000" />
<rect x="46" y="42" width="4" height="9" fill="#000000" />
<rect x="82" y="42" width="4" height="9" fill="#000000" />
<rect x="50" y="45" width="1" height="1" fill="#CC430C" />
<rect x="51" y="45" width="1" height="1" fill="#CE400E" />
<rect x="52" y="45" width="1" height="1" fill="#D1400B" />
<rect x="53" y="45" width="1" height="1" fill="#CD4013" />
<rect x="54" y="45" width="1" height="2" fill="#CE4010" />
<rect x="55" y="45" width="1" height="1" fill="#CD4012" />
<rect x="56" y="45" width="4" height="1" fill="#CE4012" />
<rect x="60" y="45" width="4" height="1" fill="#CD4012" />
<rect x="64" y="45" width="4" height="1" fill="#CE4012" />
<rect x="68" y="45" width="6" height="1" fill="#CD4012" />
<rect x="74" y="45" width="2" height="1" fill="#CE4012" />
<rect x="76" y="45" width="2" height="1" fill="#CD4012" />
<rect x="78" y="45" width="1" height="1" fill="#CD4110" />
<rect x="79" y="45" width="1" height="1" fill="#CB4113" />
<rect x="80" y="45" width="1" height="1" fill="#D0400E" />
<rect x="81" y="45" width="1" height="1" fill="#D03F10" />
<rect x="50" y="46" width="1" height="1" fill="#CD410E" />
<rect x="51" y="46" width="3" height="1" fill="#CE4010" />
<rect x="55" y="46" width="25" height="1" fill="#CE4010" />
<rect x="80" y="46" width="1" height="2" fill="#D13F0E" />
<rect x="81" y="46" width="1" height="1" fill="#CF3E11" />
<rect x="50" y="47" width="1" height="1" fill="#D0400B" />
<rect x="51" y="47" width="1" height="1" fill="#CE400E" />
<rect x="52" y="47" width="2" height="1" fill="#CF410F" />
<rect x="54" y="47" width="1" height="1" fill="#CF4111" />
<rect x="55" y="47" width="1" height="1" fill="#CF4113" />
<rect x="56" y="47" width="1" height="1" fill="#CF4111" />
<rect x="57" y="47" width="2" height="1" fill="#CF410F" />
<rect x="59" y="47" width="2" height="1" fill="#CE400E" />
<rect x="61" y="47" width="1" height="1" fill="#CF410F" />
<rect x="62" y="47" width="1" height="1" fill="#CE410C" />
<rect x="63" y="47" width="1" height="1" fill="#CF420D" />
<rect x="64" y="47" width="1" height="1" fill="#CE4010" />
<rect x="65" y="47" width="1" height="1" fill="#CE4012" />
<rect x="66" y="47" width="1" height="1" fill="#CE4010" />
<rect x="67" y="47" width="1" height="1" fill="#CF410F" />
<rect x="68" y="47" width="2" height="1" fill="#CD3F0D" />
<rect x="70" y="47" width="1" height="1" fill="#CE410C" />
<rect x="71" y="47" width="1" height="1" fill="#CF420D" />
<rect x="72" y="47" width="1" height="1" fill="#CE4010" />
<rect x="73" y="47" width="1" height="1" fill="#CE4012" />
<rect x="74" y="47" width="1" height="1" fill="#CF4111" />
<rect x="75" y="47" width="3" height="1" fill="#CE400E" />
<rect x="78" y="47" width="1" height="1" fill="#CD3F0D" />
<rect x="79" y="47" width="1" height="1" fill="#CF410F" />
<rect x="81" y="47" width="1" height="1" fill="#D24011" />
<rect x="23" y="48" width="3" height="7" fill="#000000" />
<rect x="29" y="48" width="4" height="4" fill="#000000" />
<rect x="50" y="48" width="32" height="3" fill="#000000" />
<rect x="92" y="48" width="3" height="7" fill="#000000" />
<rect x="98" y="48" width="3" height="7" fill="#000000" />
<rect x="50" y="51" width="3" height="29" fill="#000000" />
<rect x="53" y="51" width="26" height="4" fill="#8AADC1" />
<rect x="79" y="51" width="3" height="29" fill="#000000" />
<rect x="20" y="52" width="3" height="6" fill="#000000" />
<rect x="26" y="52" width="4" height="10" fill="#FD5621" />
<rect x="30" y="52" width="6" height="3" fill="#000000" />
<rect x="89" y="52" width="3" height="6" fill="#000000" />
<rect x="95" y="52" width="3" height="10" fill="#FD5621" />
<rect x="101" y="52" width="4" height="6" fill="#000000" />
<rect x="16" y="55" width="4" height="7" fill="#000000" />
<rect x="23" y="55" width="3" height="7" fill="#FD5621" />
<rect x="30" y="55" width="3" height="7" fill="#FD5621" />
<rect x="33" y="55" width="6" height="3" fill="#000000" />
<rect x="53" y="55" width="25" height="3" fill="#BFD2E0" />
<rect x="78" y="55" width="1" height="1" fill="#BCD3E1" />
<rect x="86" y="55" width="3" height="7" fill="#000000" />
<rect x="92" y="55" width="3" height="7" fill="#FD5621" />
<rect x="98" y="55" width="3" height="7" fill="#FD5621" />
<rect x="105" y="55" width="3" height="7" fill="#000000" />
<rect x="78" y="56" width="1" height="1" fill="#BCD2E0" />
<rect x="78" y="57" width="1" height="2" fill="#BDD3E1" />
<rect x="13" y="58" width="3" height="10" fill="#000000" />
<rect x="20" y="58" width="3" height="4" fill="#FD5621" />
<rect x="33" y="58" width="3" height="4" fill="#FD5621" />
<rect x="36" y="58" width="6" height="4" fill="#000000" />
<rect x="53" y="58" width="1" height="1" fill="#C1D3DD" />
<rect x="54" y="58" width="1" height="1" fill="#C1D3DF" />
<rect x="55" y="58" width="1" height="1" fill="#BDD3E1" />
<rect x="56" y="58" width="4" height="5" fill="#000000" />
<rect x="60" y="58" width="2" height="1" fill="#C0D3E1" />
<rect x="62" y="58" width="1" height="1" fill="#BED4E1" />
<rect x="63" y="58" width="1" height="1" fill="#C2D4E2" />
<rect x="64" y="58" width="1" height="1" fill="#000205" />
<rect x="65" y="58" width="3" height="5" fill="#000000" />
<rect x="68" y="58" width="3" height="3" fill="#BFD3DE" />
<rect x="71" y="58" width="1" height="1" fill="#BED2DD" />
<rect x="72" y="58" width="4" height="5" fill="#000000" />
<rect x="76" y="58" width="1" height="1" fill="#C0D2DC" />
<rect x="77" y="58" width="1" height="3" fill="#BFD3DE" />
<rect x="82" y="58" width="4" height="10" fill="#000000" />
<rect x="89" y="58" width="3" height="4" fill="#FD5621" />
<rect x="101" y="58" width="4" height="4" fill="#FD5621" />
<rect x="108" y="58" width="3" height="10" fill="#000000" />
<rect x="53" y="59" width="1" height="3" fill="#BED5DD" />
<rect x="54" y="59" width="1" height="2" fill="#BED4DF" />
<rect x="55" y="59" width="1" height="1" fill="#BBD2E0" />
<rect x="60" y="59" width="1" height="1" fill="#C1D3DF" />
<rect x="61" y="59" width="1" height="1" fill="#C0D3E1" />
<rect x="62" y="59" width="1" height="2" fill="#BDD3E1" />
<rect x="63" y="59" width="1" height="1" fill="#BFD1DD" />
<rect x="64" y="59" width="1" height="3" fill="#000306" />
<rect x="71" y="59" width="1" height="2" fill="#BDD1DC" />
<rect x="76" y="59" width="1" height="2" fill="#BFD3DE" />
<rect x="78" y="59" width="1" height="1" fill="#BCD2E0" />
<rect x="55" y="60" width="1" height="1" fill="#BCD3E1" />
<rect x="60" y="60" width="1" height="2" fill="#C0D2DE" />
<rect x="61" y="60" width="1" height="1" fill="#BFD2E0" />
<rect x="63" y="60" width="1" height="1" fill="#BFD1DB" />
<rect x="78" y="60" width="1" height="1" fill="#BDD3E1" />
<rect x="54" y="61" width="1" height="1" fill="#BFD3DE" />
<rect x="55" y="61" width="1" height="1" fill="#BDD3E1" />
<rect x="61" y="61" width="1" height="1" fill="#BFD3DE" />
<rect x="62" y="61" width="1" height="2" fill="#BCD2DF" />
<rect x="63" y="61" width="1" height="1" fill="#C0D2E0" />
<rect x="68" y="61" width="1" height="1" fill="#BED1DF" />
<rect x="69" y="61" width="3" height="2" fill="#BED2DD" />
<rect x="76" y="61" width="2" height="1" fill="#BED2DD" />
<rect x="78" y="61" width="1" height="2" fill="#BBD1DF" />
<rect x="16" y="62" width="23" height="3" fill="#CF420D" />
<rect x="39" y="62" width="3" height="6" fill="#000000" />
<rect x="53" y="62" width="1" height="1" fill="#BDD4DC" />
<rect x="54" y="62" width="1" height="1" fill="#C0D2DE" />
<rect x="55" y="62" width="1" height="1" fill="#BED4E2" />
<rect x="60" y="62" width="1" height="1" fill="#BFD1DF" />
<rect x="61" y="62" width="1" height="1" fill="#BED2DD" />
<rect x="63" y="62" width="1" height="1" fill="#C3D5E3" />
<rect x="64" y="62" width="1" height="1" fill="#000507" />
<rect x="68" y="62" width="1" height="1" fill="#BDD1DC" />
<rect x="76" y="62" width="1" height="1" fill="#BFD1DB" />
<rect x="77" y="62" width="1" height="1" fill="#BED2DD" />
<rect x="86" y="62" width="22" height="3" fill="#CE400E" />
<rect x="53" y="63" width="26" height="13" fill="#BFD2E0" />
<rect x="16" y="65" width="23" height="3" fill="#000000" />
<rect x="86" y="65" width="22" height="3" fill="#000000" />
<rect x="17" y="68" width="3" height="12" fill="#000000" />
<rect x="20" y="68" width="1" height="1" fill="#90ACC1" />
<rect x="21" y="68" width="1" height="1" fill="#8FACBE" />
<rect x="22" y="68" width="1" height="2" fill="#90ADBF" />
<rect x="23" y="68" width="1" height="1" fill="#8FACBE" />
<rect x="24" y="68" width="1" height="1" fill="#90ADBF" />
<rect x="25" y="68" width="1" height="1" fill="#8FACBE" />
<rect x="26" y="68" width="1" height="1" fill="#90ADBF" />
<rect x="27" y="68" width="7" height="1" fill="#8FACBE" />
<rect x="34" y="68" width="1" height="1" fill="#8AAFC1" />
<rect x="35" y="68" width="1" height="1" fill="#8EAFC2" />
<rect x="36" y="68" width="3" height="12" fill="#000000" />
<rect x="82" y="68" width="1" height="12" fill="#000000" />
<rect x="85" y="68" width="4" height="15" fill="#000000" />
<rect x="89" y="68" width="16" height="3" fill="#8AADC1" />
<rect x="105" y="68" width="3" height="12" fill="#000000" />
<rect x="20" y="69" width="1" height="1" fill="#8DAEBF" />
<rect x="21" y="69" width="1" height="1" fill="#90ADBF" />
<rect x="23" y="69" width="1" height="1" fill="#90ADBF" />
<rect x="24" y="69" width="1" height="1" fill="#8FACBE" />
<rect x="25" y="69" width="1" height="1" fill="#90ADBF" />
<rect x="26" y="69" width="2" height="1" fill="#8FACBE" />
<rect x="28" y="69" width="2" height="1" fill="#90ADBF" />
<rect x="30" y="69" width="1" height="1" fill="#8FACBE" />
<rect x="31" y="69" width="1" height="1" fill="#90ADBF" />
<rect x="32" y="69" width="2" height="1" fill="#8FACBE" />
<rect x="34" y="69" width="1" height="1" fill="#8DACC0" />
<rect x="35" y="69" width="1" height="1" fill="#8AAFC1" />
<rect x="20" y="70" width="1" height="1" fill="#8BAEC2" />
<rect x="21" y="70" width="6" height="1" fill="#8AADC1" />
<rect x="27" y="70" width="1" height="1" fill="#8BAEC2" />
<rect x="28" y="70" width="1" height="1" fill="#89ACC0" />
<rect x="29" y="70" width="5" height="1" fill="#8AADC1" />
<rect x="34" y="70" width="1" height="1" fill="#8AACC5" />
<rect x="35" y="70" width="1" height="1" fill="#83ACC0" />
<rect x="20" y="71" width="1" height="1" fill="#BFD5E3" />
<rect x="21" y="71" width="5" height="3" fill="#C1D4E2" />
<rect x="26" y="71" width="2" height="1" fill="#C0D3E1" />
<rect x="28" y="71" width="1" height="15" fill="#C1D4E2" />
<rect x="29" y="71" width="1" height="1" fill="#C0D3E1" />
<rect x="30" y="71" width="1" height="3" fill="#C1D4E2" />
<rect x="31" y="71" width="1" height="1" fill="#C0D3E1" />
<rect x="32" y="71" width="2" height="3" fill="#C1D4E2" />
<rect x="34" y="71" width="1" height="1" fill="#C1D5E0" />
<rect x="35" y="71" width="1" height="1" fill="#BED5E3" />
<rect x="89" y="71" width="16" height="3" fill="#C1D4E2" />
<rect x="20" y="72" width="1" height="20" fill="#C1D4E2" />
<rect x="26" y="72" width="2" height="2" fill="#C1D4E2" />
<rect x="29" y="72" width="1" height="14" fill="#C1D4E2" />
<rect x="31" y="72" width="1" height="2" fill="#C1D4E2" />
<rect x="34" y="72" width="1" height="2" fill="#C1D4E2" />
<rect x="35" y="72" width="1" height="1" fill="#C1D4E3" />
<rect x="35" y="73" width="1" height="1" fill="#C2D6E1" />
<rect x="21" y="74" width="2" height="37" fill="#C1D4E2" />
<rect x="23" y="74" width="1" height="1" fill="#1C1616" />
<rect x="24" y="74" width="1" height="1" fill="#181816" />
<rect x="25" y="74" width="1" height="1" fill="#171813" />
<rect x="26" y="74" width="1" height="3" fill="#C2D4E0" />
<rect x="27" y="74" width="1" height="12" fill="#C1D4E2" />
<rect x="30" y="74" width="1" height="1" fill="#1D1814" />
<rect x="31" y="74" width="1" height="1" fill="#1C1713" />
<rect x="32" y="74" width="1" height="1" fill="#141819" />
<rect x="33" y="74" width="1" height="1" fill="#C1D4E2" />
<rect x="34" y="74" width="1" height="3" fill="#C3D3E0" />
<rect x="35" y="74" width="1" height="1" fill="#C1D5E0" />
<rect x="89" y="74" width="1" height="1" fill="#C0D3E1" />
<rect x="90" y="74" width="1" height="1" fill="#BED5E5" />
<rect x="91" y="74" width="1" height="5" fill="#C1D4E2" />
<rect x="92" y="74" width="3" height="5" fill="#000000" />
<rect x="95" y="74" width="1" height="1" fill="#BCD7E2" />
<rect x="96" y="74" width="1" height="1" fill="#C1D4E3" />
<rect x="97" y="74" width="2" height="1" fill="#C1D4E2" />
<rect x="99" y="74" width="3" height="5" fill="#000000" />
<rect x="102" y="74" width="3" height="37" fill="#C1D4E2" />
<rect x="23" y="75" width="1" height="1" fill="#1C1914" />
<rect x="24" y="75" width="1" height="2" fill="#181A19" />
<rect x="25" y="75" width="1" height="1" fill="#171918" />
<rect x="30" y="75" width="2" height="1" fill="#191917" />
<rect x="32" y="75" width="1" height="1" fill="#151515" />
<rect x="33" y="75" width="1" height="1" fill="#BED6E2" />
<rect x="35" y="75" width="1" height="1" fill="#C1D4E2" />
<rect x="89" y="75" width="2" height="1" fill="#C1D4E2" />
<rect x="95" y="75" width="1" height="1" fill="#BFD5E3" />
<rect x="96" y="75" width="1" height="1" fill="#C1D5E0" />
<rect x="97" y="75" width="1" height="2" fill="#C0D3E1" />
<rect x="98" y="75" width="1" height="4" fill="#C1D4E2" />
<rect x="13" y="76" width="4" height="4" fill="#000000" />
<rect x="23" y="76" width="1" height="1" fill="#1A1914" />
<rect x="25" y="76" width="1" height="1" fill="#181A19" />
<rect x="30" y="76" width="1" height="1" fill="#191816" />
<rect x="31" y="76" width="1" height="1" fill="#191917" />
<rect x="32" y="76" width="1" height="1" fill="#161618" />
<rect x="33" y="76" width="1" height="1" fill="#BED5E3" />
<rect x="35" y="76" width="1" height="1" fill="#C0D3E2" />
<rect x="39" y="76" width="3" height="41" fill="#000000" />
<rect x="46" y="76" width="1" height="8" fill="#000000" />
<rect x="47" y="76" width="1" height="1" fill="#010100" />
<rect x="48" y="76" width="1" height="8" fill="#000000" />
<rect x="49" y="76" width="1" height="1" fill="#020200" />
<rect x="53" y="76" width="3" height="4" fill="#BFD2E0" />
<rect x="56" y="76" width="4" height="8" fill="#000000" />
<rect x="60" y="76" width="4" height="4" fill="#BFD2E0" />
<rect x="64" y="76" width="1" height="1" fill="#000406" />
<rect x="65" y="76" width="1" height="1" fill="#000305" />
<rect x="66" y="76" width="1" height="1" fill="#000307" />
<rect x="67" y="76" width="1" height="1" fill="#000204" />
<rect x="68" y="76" width="1" height="1" fill="#B8CCD7" />
<rect x="69" y="76" width="3" height="4" fill="#BFD2E0" />
<rect x="72" y="76" width="1" height="1" fill="#000307" />
<rect x="73" y="76" width="2" height="1" fill="#000306" />
<rect x="75" y="76" width="1" height="1" fill="#000508" />
<rect x="76" y="76" width="2" height="3" fill="#BFD2E0" />
<rect x="78" y="76" width="1" height="1" fill="#BCD1E2" />
<rect x="83" y="76" width="1" height="1" fill="#020200" />
<rect x="84" y="76" width="1" height="1" fill="#030301" />
<rect x="89" y="76" width="1" height="35" fill="#C1D4E2" />
<rect x="90" y="76" width="1" height="1" fill="#BFD5E2" />
<rect x="95" y="76" width="1" height="2" fill="#BFD4E5" />
<rect x="96" y="76" width="1" height="10" fill="#C1D4E2" />
<rect x="108" y="76" width="3" height="8" fill="#000000" />
<rect x="23" y="77" width="1" height="1" fill="#1E1516" />
<rect x="24" y="77" width="1" height="1" fill="#1A1917" />
<rect x="25" y="77" width="1" height="1" fill="#1C1815" />
<rect x="26" y="77" width="1" height="1" fill="#C3D3E0" />
<rect x="30" y="77" width="1" height="1" fill="#191813" />
<rect x="31" y="77" width="1" height="1" fill="#1B1811" />
<rect x="32" y="77" width="1" height="1" fill="#131814" />
<rect x="33" y="77" width="1" height="1" fill="#BFD5E0" />
<rect x="34" y="77" width="1" height="1" fill="#C3D4DE" />
<rect x="35" y="77" width="1" height="1" fill="#BFD2E1" />
<rect x="47" y="77" width="1" height="7" fill="#000000" />
<rect x="49" y="77" width="1" height="7" fill="#000000" />
<rect x="64" y="77" width="4" height="7" fill="#000000" />
<rect x="68" y="77" width="1" height="1" fill="#BACED9" />
<rect x="72" y="77" width="4" height="7" fill="#000000" />
<rect x="78" y="77" width="1" height="2" fill="#BDD2E3" />
<rect x="83" y="77" width="2" height="6" fill="#000000" />
<rect x="90" y="77" width="1" height="2" fill="#BED6E2" />
<rect x="97" y="77" width="1" height="1" fill="#C2D5E3" />
<rect x="23" y="78" width="1" height="1" fill="#1F1A17" />
<rect x="24" y="78" width="1" height="1" fill="#171612" />
<rect x="25" y="78" width="1" height="1" fill="#1A1915" />
<rect x="26" y="78" width="1" height="1" fill="#C2D4E0" />
<rect x="30" y="78" width="1" height="1" fill="#1E1613" />
<rect x="31" y="78" width="1" height="1" fill="#1F1714" />
<rect x="32" y="78" width="1" height="1" fill="#1D2122" />
<rect x="33" y="78" width="1" height="12" fill="#C1D4E2" />
<rect x="34" y="78" width="1" height="1" fill="#C3D3E0" />
<rect x="35" y="78" width="1" height="1" fill="#C0D3E2" />
<rect x="68" y="78" width="1" height="1" fill="#BACDDB" />
<rect x="95" y="78" width="1" height="1" fill="#BFD4E7" />
<rect x="97" y="78" width="1" height="8" fill="#C1D4E2" />
<rect x="23" y="79" width="4" height="7" fill="#C1D4E2" />
<rect x="30" y="79" width="3" height="7" fill="#C1D4E2" />
<rect x="34" y="79" width="2" height="6" fill="#C1D4E2" />
<rect x="68" y="79" width="1" height="1" fill="#BFD1DB" />
<rect x="76" y="79" width="1" height="1" fill="#BFD2E0" />
<rect x="77" y="79" width="1" height="1" fill="#BCD2DF" />
<rect x="78" y="79" width="1" height="1" fill="#BAD4E1" />
<rect x="90" y="79" width="2" height="1" fill="#BFD5E2" />
<rect x="92" y="79" width="1" height="1" fill="#C3D4DE" />
<rect x="93" y="79" width="1" height="1" fill="#C2D4E0" />
<rect x="94" y="79" width="1" height="1" fill="#C5D3DE" />
<rect x="95" y="79" width="1" height="1" fill="#C1D4E3" />
<rect x="98" y="79" width="1" height="1" fill="#BFD5E3" />
<rect x="99" y="79" width="1" height="1" fill="#C3D4DE" />
<rect x="100" y="79" width="2" height="1" fill="#C2D4DE" />
<rect x="13" y="80" width="3" height="4" fill="#000000" />
<rect x="16" y="80" width="4" height="4" fill="#86ACC1" />
<rect x="36" y="80" width="1" height="1" fill="#8BAEC2" />
<rect x="37" y="80" width="2" height="34" fill="#8DADC2" />
<rect x="42" y="80" width="4" height="4" fill="#000000" />
<rect x="50" y="80" width="2" height="1" fill="#BFD5E0" />
<rect x="52" y="80" width="1" height="1" fill="#C0D2DE" />
<rect x="53" y="80" width="3" height="4" fill="#000000" />
<rect x="60" y="80" width="4" height="4" fill="#000000" />
<rect x="68" y="80" width="4" height="4" fill="#000000" />
<rect x="76" y="80" width="3" height="4" fill="#000000" />
<rect x="79" y="80" width="1" height="1" fill="#C1CED6" />
<rect x="80" y="80" width="1" height="1" fill="#BED4DF" />
<rect x="81" y="80" width="1" height="1" fill="#C0D7DF" />
<rect x="82" y="80" width="1" height="1" fill="#000303" />
<rect x="90" y="80" width="1" height="16" fill="#C1D4E3" />
<rect x="91" y="80" width="5" height="6" fill="#C1D4E2" />
<rect x="98" y="80" width="4" height="6" fill="#C1D4E2" />
<rect x="105" y="80" width="3" height="4" fill="#8BAEC2" />
<rect x="36" y="81" width="1" height="26" fill="#8DAEC1" />
<rect x="50" y="81" width="1" height="1" fill="#C1D4E3" />
<rect x="51" y="81" width="1" height="1" fill="#C1D4E2" />
<rect x="52" y="81" width="1" height="1" fill="#C0D7E7" />
<rect x="79" y="81" width="1" height="1" fill="#BDCFDB" />
<rect x="80" y="81" width="1" height="2" fill="#C0D3E1" />
<rect x="81" y="81" width="1" height="2" fill="#C2D5E3" />
<rect x="82" y="81" width="1" height="2" fill="#000104" />
<rect x="50" y="82" width="1" height="1" fill="#BFD5E2" />
<rect x="51" y="82" width="1" height="2" fill="#C0D3E1" />
<rect x="52" y="82" width="1" height="1" fill="#BCD3E3" />
<rect x="79" y="82" width="1" height="1" fill="#BFD0DA" />
<rect x="50" y="83" width="1" height="1" fill="#C1D5E0" />
<rect x="52" y="83" width="1" height="1" fill="#BBD1DE" />
<rect x="79" y="83" width="1" height="1" fill="#C0D4DB" />
<rect x="80" y="83" width="1" height="1" fill="#C0D4DF" />
<rect x="81" y="83" width="1" height="1" fill="#BDD0DE" />
<rect x="82" y="83" width="1" height="1" fill="#00060C" />
<rect x="83" y="83" width="1" height="1" fill="#000507" />
<rect x="84" y="83" width="1" height="1" fill="#000408" />
<rect x="85" y="83" width="3" height="1" fill="#000000" />
<rect x="88" y="83" width="1" height="1" fill="#040807" />
<rect x="16" y="84" width="4" height="33" fill="#000000" />
<rect x="42" y="84" width="44" height="5" fill="#C1D4E2" />
<rect x="86" y="84" width="3" height="32" fill="#000303" />
<rect x="105" y="84" width="3" height="33" fill="#000000" />
<rect x="34" y="85" width="1" height="10" fill="#BFD4E5" />
<rect x="35" y="85" width="1" height="5" fill="#C0D6E3" />
<rect x="23" y="86" width="1" height="25" fill="#C1D4E2" />
<rect x="24" y="86" width="1" height="1" fill="#BFD4E5" />
<rect x="25" y="86" width="6" height="3" fill="#000000" />
<rect x="31" y="86" width="1" height="1" fill="#BCD6E3" />
<rect x="32" y="86" width="1" height="2" fill="#C1D4E2" />
<rect x="91" y="86" width="1" height="25" fill="#C1D4E2" />
<rect x="92" y="86" width="1" height="1" fill="#BFD4E5" />
<rect x="93" y="86" width="1" height="1" fill="#C0D2DE" />
<rect x="94" y="86" width="5" height="3" fill="#000000" />
<rect x="99" y="86" width="1" height="1" fill="#000207" />
<rect x="100" y="86" width="2" height="3" fill="#C1D4E2" />
<rect x="24" y="87" width="1" height="1" fill="#BED4E2" />
<rect x="31" y="87" width="1" height="1" fill="#BFD5E2" />
<rect x="92" y="87" width="1" height="1" fill="#C1D5E0" />
<rect x="93" y="87" width="1" height="1" fill="#C2D4DE" />
<rect x="99" y="87" width="1" height="1" fill="#00040A" />
<rect x="24" y="88" width="1" height="2" fill="#BED3E4" />
<rect x="31" y="88" width="1" height="1" fill="#C1D4E2" />
<rect x="32" y="88" width="1" height="1" fill="#C1D4E3" />
<rect x="92" y="88" width="1" height="1" fill="#BFD5E0" />
<rect x="93" y="88" width="1" height="1" fill="#C0D2DE" />
<rect x="99" y="88" width="1" height="1" fill="#00050A" />
<rect x="25" y="89" width="2" height="6" fill="#000000" />
<rect x="27" y="89" width="2" height="3" fill="#C1D4E2" />
<rect x="29" y="89" width="2" height="6" fill="#000000" />
<rect x="31" y="89" width="1" height="2" fill="#C1D4E3" />
<rect x="32" y="89" width="1" height="2" fill="#C1D4E2" />
<rect x="42" y="89" width="11" height="22" fill="#C1D4E2" />
<rect x="53" y="89" width="1" height="2" fill="#C0D3E1" />
<rect x="54" y="89" width="1" height="1" fill="#BFD2E0" />
<rect x="55" y="89" width="1" height="3" fill="#C1D4E2" />
<rect x="56" y="89" width="20" height="3" fill="#000000" />
<rect x="76" y="89" width="1" height="3" fill="#BFD2E0" />
<rect x="77" y="89" width="1" height="2" fill="#C0D4DF" />
<rect x="78" y="89" width="1" height="1" fill="#C0D3E1" />
<rect x="79" y="89" width="7" height="22" fill="#C1D4E2" />
<rect x="92" y="89" width="1" height="1" fill="#C1D5E0" />
<rect x="93" y="89" width="1" height="1" fill="#BDD3DE" />
<rect x="94" y="89" width="2" height="6" fill="#000000" />
<rect x="96" y="89" width="2" height="3" fill="#C1D4E2" />
<rect x="98" y="89" width="1" height="6" fill="#000000" />
<rect x="99" y="89" width="1" height="1" fill="#00040A" />
<rect x="100" y="89" width="1" height="2" fill="#C2D4E2" />
<rect x="101" y="89" width="1" height="22" fill="#C1D4E2" />
<rect x="24" y="90" width="1" height="1" fill="#BFD4E5" />
<rect x="33" y="90" width="1" height="1" fill="#C2D5E3" />
<rect x="35" y="90" width="1" height="1" fill="#BFD5E2" />
<rect x="54" y="90" width="1" height="1" fill="#C0D4DF" />
<rect x="78" y="90" width="1" height="1" fill="#C1D4E2" />
<rect x="92" y="90" width="1" height="1" fill="#C2D4E0" />
<rect x="93" y="90" width="1" height="1" fill="#BED4DF" />
<rect x="99" y="90" width="1" height="2" fill="#000407" />
<rect x="24" y="91" width="1" height="1" fill="#BDD7E6" />
<rect x="31" y="91" width="1" height="4" fill="#BFD5E3" />
<rect x="32" y="91" width="1" height="4" fill="#BFD5E2" />
<rect x="33" y="91" width="1" height="3" fill="#C1D4E2" />
<rect x="35" y="91" width="1" height="2" fill="#C0D6E3" />
<rect x="53" y="91" width="2" height="1" fill="#C1D4E2" />
<rect x="77" y="91" width="2" height="1" fill="#BFD2E0" />
<rect x="92" y="91" width="1" height="1" fill="#C1D5E0" />
<rect x="93" y="91" width="1" height="1" fill="#C0D4DF" />
<rect x="100" y="91" width="1" height="2" fill="#C1D4E2" />
<rect x="20" y="92" width="1" height="3" fill="#BFD5E3" />
<rect x="24" y="92" width="1" height="1" fill="#BCD6E5" />
<rect x="27" y="92" width="2" height="3" fill="#000000" />
<rect x="53" y="92" width="5" height="3" fill="#000000" />
<rect x="58" y="92" width="16" height="3" fill="#8D5206" />
<rect x="74" y="92" width="5" height="3" fill="#000000" />
<rect x="92" y="92" width="1" height="3" fill="#BFD5E0" />
<rect x="93" y="92" width="1" height="1" fill="#C2D4E0" />
<rect x="96" y="92" width="2" height="3" fill="#000000" />
<rect x="99" y="92" width="1" height="1" fill="#000508" />
<rect x="24" y="93" width="1" height="1" fill="#BACFE0" />
<rect x="35" y="93" width="1" height="1" fill="#BFD5E2" />
<rect x="93" y="93" width="1" height="1" fill="#C1D3DF" />
<rect x="99" y="93" width="1" height="2" fill="#000407" />
<rect x="100" y="93" width="1" height="2" fill="#C2D4E2" />
<rect x="24" y="94" width="1" height="1" fill="#BFD4E5" />
<rect x="33" y="94" width="1" height="1" fill="#C2D5E3" />
<rect x="35" y="94" width="1" height="1" fill="#BED4E1" />
<rect x="93" y="94" width="1" height="1" fill="#C0D2DE" />
<rect x="20" y="95" width="1" height="16" fill="#C1D4E2" />
<rect x="24" y="95" width="12" height="16" fill="#C1D4E2" />
<rect x="53" y="95" width="3" height="22" fill="#000000" />
<rect x="56" y="95" width="20" height="4" fill="#C87910" />
<rect x="76" y="95" width="3" height="22" fill="#000000" />
<rect x="92" y="95" width="9" height="16" fill="#C1D4E2" />
<rect x="90" y="96" width="1" height="15" fill="#C1D4E2" />
<rect x="56" y="99" width="1" height="1" fill="#8F5106" />
<rect x="57" y="99" width="19" height="4" fill="#8D5206" />
<rect x="56" y="100" width="1" height="1" fill="#8F5104" />
<rect x="56" y="101" width="1" height="1" fill="#8F5106" />
<rect x="56" y="102" width="1" height="1" fill="#915202" />
<rect x="56" y="103" width="20" height="3" fill="#C87910" />
<rect x="56" y="106" width="20" height="4" fill="#8D5204" />
<rect x="36" y="107" width="1" height="2" fill="#8DADC2" />
<rect x="36" y="109" width="1" height="2" fill="#8DAEC1" />
<rect x="56" y="110" width="20" height="4" fill="#C87910" />
<rect x="20" y="111" width="1" height="2" fill="#8AADC3" />
<rect x="21" y="111" width="6" height="1" fill="#8CACC1" />
<rect x="27" y="111" width="1" height="3" fill="#8DADC2" />
<rect x="28" y="111" width="1" height="1" fill="#8CACC1" />
<rect x="29" y="111" width="2" height="1" fill="#8DADC2" />
<rect x="31" y="111" width="2" height="1" fill="#8CACC1" />
<rect x="33" y="111" width="1" height="3" fill="#8DADC2" />
<rect x="34" y="111" width="1" height="1" fill="#8BAEC2" />
<rect x="35" y="111" width="2" height="3" fill="#8DADC2" />
<rect x="42" y="111" width="11" height="3" fill="#8DADC2" />
<rect x="79" y="111" width="5" height="2" fill="#8DADC2" />
<rect x="84" y="111" width="1" height="1" fill="#8FAEC0" />
<rect x="85" y="111" width="1" height="3" fill="#8DADC2" />
<rect x="89" y="111" width="16" height="3" fill="#8DADC2" />
<rect x="21" y="112" width="6" height="2" fill="#8DADC2" />
<rect x="28" y="112" width="1" height="2" fill="#8DADC2" />
<rect x="29" y="112" width="1" height="1" fill="#8CACC1" />
<rect x="30" y="112" width="1" height="2" fill="#8DADC2" />
<rect x="31" y="112" width="1" height="1" fill="#8CACC1" />
<rect x="32" y="112" width="1" height="2" fill="#8DADC2" />
<rect x="34" y="112" width="1" height="2" fill="#8DADC2" />
<rect x="84" y="112" width="1" height="1" fill="#8DADC2" />
<rect x="20" y="113" width="1" height="1" fill="#8DADC2" />
<rect x="29" y="113" width="1" height="1" fill="#8DADC2" />
<rect x="31" y="113" width="1" height="1" fill="#8DADC2" />
<rect x="79" y="113" width="2" height="1" fill="#8DADC2" />
<rect x="81" y="113" width="1" height="1" fill="#88AEC1" />
<rect x="82" y="113" width="3" height="1" fill="#89AFC6" />
<rect x="20" y="114" width="19" height="3" fill="#000000" />
<rect x="42" y="114" width="11" height="3" fill="#000000" />
<rect x="56" y="114" width="20" height="3" fill="#000000" />
<rect x="79" y="114" width="7" height="3" fill="#000000" />
<rect x="89" y="114" width="16" height="3" fill="#000000" />
<rect x="86" y="116" width="3" height="1" fill="#000000" />
</svg>