<?xml version="1.0" encoding="UTF-8" ?>
<svg version="1.1" width="192" height="64" xmlns="http://www.w3.org/2000/svg" shape-rendering="crispEdges">
<rect x="8" y="0" width="176" height="4" fill="#000000" />
<rect x="4" y="4" width="4" height="4" fill="#000000" />
<rect x="8" y="4" width="176" height="8" fill="#33CF87" />
<rect x="184" y="4" width="4" height="4" fill="#000000" />
<rect x="0" y="8" width="4" height="48" fill="#000000" />
<rect x="4" y="8" width="4" height="4" fill="#33CF87" />
<rect x="184" y="8" width="4" height="4" fill="#33CF87" />
<rect x="188" y="8" width="4" height="48" fill="#000000" />
<rect x="4" y="12" width="184" height="8" fill="#2BC77F" />
<rect x="4" y="20" width="184" height="8" fill="#239063" />
<rect x="4" y="28" width="184" height="4" fill="#A65B41" />
<rect x="4" y="32" width="6" height="8" fill="#A65B41" />
<rect x="10" y="32" width="4" height="4" fill="#934C33" />
<rect x="14" y="32" width="12" height="8" fill="#A65B41" />
<rect x="26" y="32" width="8" height="8" fill="#934C33" />
<rect x="34" y="32" width="68" height="4" fill="#A65B41" />
<rect x="102" y="32" width="8" height="8" fill="#934C33" />
<rect x="110" y="32" width="12" height="8" fill="#A65B41" />
<rect x="122" y="32" width="4" height="4" fill="#934C33" />
<rect x="126" y="32" width="32" height="4" fill="#A65B41" />
<rect x="158" y="32" width="8" height="8" fill="#934C33" />
<rect x="166" y="32" width="12" height="8" fill="#A65B41" />
<rect x="178" y="32" width="4" height="4" fill="#934C33" />
<rect x="182" y="32" width="6" height="8" fill="#A65B41" />
<rect x="10" y="36" width="4" height="4" fill="#A65B41" />
<rect x="34" y="36" width="16" height="4" fill="#A65B41" />
<rect x="50" y="36" width="4" height="4" fill="#934C33" />
<rect x="54" y="36" width="28" height="4" fill="#A65B41" />
<rect x="82" y="36" width="4" height="4" fill="#934C33" />
<rect x="86" y="36" width="16" height="4" fill="#A65B41" />
<rect x="122" y="36" width="16" height="4" fill="#A65B41" />
<rect x="138" y="36" width="4" height="4" fill="#934C33" />
<rect x="142" y="36" width="16" height="4" fill="#A65B41" />
<rect x="178" y="36" width="4" height="4" fill="#A65B41" />
<rect x="4" y="40" width="184" height="2" fill="#A85644" />
<rect x="4" y="42" width="8" height="10" fill="#A85644" />
<rect x="12" y="42" width="8" height="8" fill="#964736" />
<rect x="20" y="42" width="22" height="4" fill="#A85644" />
<rect x="42" y="42" width="8" height="4" fill="#964736" />
<rect x="50" y="42" width="36" height="6" fill="#A85644" />
<rect x="86" y="42" width="8" height="4" fill="#964736" />
<rect x="94" y="42" width="22" height="4" fill="#A85644" />
<rect x="116" y="42" width="8" height="8" fill="#964736" />
<rect x="124" y="42" width="18" height="6" fill="#A85644" />
<rect x="142" y="42" width="8" height="4" fill="#964736" />
<rect x="150" y="42" width="22" height="4" fill="#A85644" />
<rect x="172" y="42" width="8" height="8" fill="#964736" />
<rect x="180" y="42" width="8" height="10" fill="#A85644" />
<rect x="20" y="46" width="12" height="6" fill="#A85644" />
<rect x="32" y="46" width="4" height="4" fill="#964736" />
<rect x="36" y="46" width="14" height="6" fill="#A85644" />
<rect x="86" y="46" width="14" height="6" fill="#A85644" />
<rect x="100" y="46" width="4" height="4" fill="#964736" />
<rect x="104" y="46" width="12" height="6" fill="#A85644" />
<rect x="142" y="46" width="14" height="6" fill="#A85644" />
<rect x="156" y="46" width="4" height="4" fill="#964736" />
<rect x="160" y="46" width="12" height="6" fill="#A85644" />
<rect x="50" y="48" width="4" height="4" fill="#A85644" />
<rect x="54" y="48" width="4" height="4" fill="#964736" />
<rect x="58" y="48" width="20" height="4" fill="#A85644" />
<rect x="78" y="48" width="4" height="4" fill="#964736" />
<rect x="82" y="48" width="4" height="4" fill="#A85644" />
<rect x="124" y="48" width="10" height="4" fill="#A85644" />
<rect x="134" y="48" width="4" height="4" fill="#964736" />
<rect x="138" y="48" width="4" height="4" fill="#A85644" />
<rect x="12" y="50" width="8" height="2" fill="#A85644" />
<rect x="32" y="50" width="4" height="2" fill="#A85644" />
<rect x="100" y="50" width="4" height="2" fill="#A85644" />
<rect x="116" y="50" width="8" height="2" fill="#A85644" />
<rect x="156" y="50" width="4" height="2" fill="#A85644" />
<rect x="172" y="50" width="8" height="2" fill="#A85644" />
<rect x="4" y="52" width="22" height="4" fill="#9E4539" />
<rect x="26" y="52" width="8" height="8" fill="#913C30" />
<rect x="34" y="52" width="68" height="2" fill="#9E4539" />
<rect x="102" y="52" width="8" height="8" fill="#913C30" />
<rect x="110" y="52" width="48" height="2" fill="#9E4539" />
<rect x="158" y="52" width="8" height="8" fill="#913C30" />
<rect x="166" y="52" width="22" height="4" fill="#9E4539" />
<rect x="34" y="54" width="6" height="6" fill="#9E4539" />
<rect x="40" y="54" width="4" height="4" fill="#913C30" />
<rect x="44" y="54" width="48" height="2" fill="#9E4539" />
<rect x="92" y="54" width="4" height="4" fill="#913C30" />
<rect x="96" y="54" width="6" height="6" fill="#9E4539" />
<rect x="110" y="54" width="38" height="2" fill="#9E4539" />
<rect x="148" y="54" width="4" height="4" fill="#913C30" />
<rect x="152" y="54" width="6" height="6" fill="#9E4539" />
<rect x="4" y="56" width="4" height="4" fill="#000000" />
<rect x="8" y="56" width="6" height="4" fill="#9E4539" />
<rect x="14" y="56" width="4" height="4" fill="#913C30" />
<rect x="18" y="56" width="8" height="4" fill="#9E4539" />
<rect x="44" y="56" width="14" height="4" fill="#9E4539" />
<rect x="58" y="56" width="4" height="4" fill="#913C30" />
<rect x="62" y="56" width="12" height="4" fill="#9E4539" />
<rect x="74" y="56" width="4" height="4" fill="#913C30" />
<rect x="78" y="56" width="14" height="4" fill="#9E4539" />
<rect x="110" y="56" width="8" height="4" fill="#9E4539" />
<rect x="118" y="56" width="4" height="4" fill="#913C30" />
<rect x="122" y="56" width="8" height="4" fill="#9E4539" />
<rect x="130" y="56" width="4" height="4" fill="#913C30" />
<rect x="134" y="56" width="14" height="4" fill="#9E4539" />
<rect x="166" y="56" width="8" height="4" fill="#9E4539" />
<rect x="174" y="56" width="4" height="4" fill="#913C30" />
<rect x="178" y="56" width="6" height="4" fill="#9E4539" />
<rect x="184" y="56" width="4" height="4" fill="#000000" />
<rect x="40" y="58" width="4" height="2" fill="#9E4539" />
<rect x="92" y="58" width="4" height="2" fill="#9E4539" />
<rect x="148" y="58" width="4" height="2" fill="#9E4539" />
<rect x="8" y="60" width="176" height="4" fill="#000000" />
</svg>