<?xml version="1.0" encoding="UTF-8" ?>
<svg version="1.1" width="32" height="32" xmlns="http://www.w3.org/2000/svg" shape-rendering="crispEdges">
<rect x="8" y="9" width="1" height="1" fill="#000000" />
<rect x="15" y="9" width="2" height="1" fill="#000000" />
<rect x="23" y="9" width="2" height="1" fill="#000000" />
<rect x="7" y="10" width="1" height="9" fill="#000000" />
<rect x="8" y="10" width="1" height="9" fill="#FFC20E" />
<rect x="9" y="10" width="1" height="2" fill="#000000" />
<rect x="14" y="10" width="1" height="2" fill="#000000" />
<rect x="15" y="10" width="2" height="9" fill="#FFF200" />
<rect x="17" y="10" width="1" height="2" fill="#000000" />
<rect x="22" y="10" width="1" height="2" fill="#000000" />
<rect x="23" y="10" width="1" height="9" fill="#FFF200" />
<rect x="24" y="10" width="1" height="9" fill="#000000" />
<rect x="9" y="12" width="1" height="7" fill="#FFF200" />
<rect x="10" y="12" width="1" height="2" fill="#000000" />
<rect x="13" y="12" width="1" height="2" fill="#000000" />
<rect x="14" y="12" width="1" height="7" fill="#FFC20E" />
<rect x="17" y="12" width="1" height="7" fill="#FFF200" />
<rect x="18" y="12" width="1" height="2" fill="#000000" />
<rect x="21" y="12" width="1" height="2" fill="#000000" />
<rect x="22" y="12" width="1" height="7" fill="#FFF200" />
<rect x="10" y="14" width="1" height="5" fill="#FFC20E" />
<rect x="11" y="14" width="2" height="1" fill="#000000" />
<rect x="13" y="14" width="1" height="5" fill="#FFC20E" />
<rect x="18" y="14" width="1" height="5" fill="#FFF9BD" />
<rect x="19" y="14" width="2" height="1" fill="#000000" />
<rect x="21" y="14" width="1" height="5" fill="#FFF200" />
<rect x="11" y="15" width="1" height="1" fill="#000000" />
<rect x="12" y="15" width="1" height="4" fill="#FFC20E" />
<rect x="19" y="15" width="1" height="4" fill="#FFF9BD" />
<rect x="20" y="15" width="1" height="1" fill="#000000" />
<rect x="11" y="16" width="1" height="3" fill="#FFC20E" />
<rect x="20" y="16" width="1" height="3" fill="#FFF200" />
<rect x="8" y="19" width="1" height="1" fill="#000000" />
<rect x="9" y="19" width="14" height="1" fill="#DE6B00" />
<rect x="23" y="19" width="1" height="1" fill="#000000" />
<rect x="7" y="20" width="1" height="2" fill="#000000" />
<rect x="8" y="20" width="1" height="2" fill="#FFC20E" />
<rect x="9" y="20" width="1" height="2" fill="#FFF200" />
<rect x="10" y="20" width="5" height="2" fill="#FFC20E" />
<rect x="15" y="20" width="3" height="2" fill="#FFF200" />
<rect x="18" y="20" width="2" height="2" fill="#FFF9BD" />
<rect x="20" y="20" width="4" height="2" fill="#FFF200" />
<rect x="24" y="20" width="1" height="2" fill="#000000" />
<rect x="8" y="22" width="16" height="1" fill="#000000" />
</svg>