<?xml version="1.0" encoding="UTF-8" ?>
<svg version="1.1" width="256" height="256" xmlns="http://www.w3.org/2000/svg" shape-rendering="crispEdges">
<rect x="151" y="55" width="12" height="5" fill="#FFFFFF" />
<rect x="145" y="60" width="9" height="3" fill="#FFFFFF" />
<rect x="154" y="60" width="6" height="25" fill="#E6DDA3" />
<rect x="160" y="60" width="6" height="3" fill="#FFFFFF" />
<rect x="142" y="63" width="6" height="3" fill="#FFFFFF" />
<rect x="148" y="63" width="6" height="22" fill="#E6DDA3" />
<rect x="160" y="63" width="3" height="25" fill="#E6DDA3" />
<rect x="163" y="63" width="9" height="3" fill="#FFFFFF" />
<rect x="136" y="66" width="6" height="3" fill="#FFFFFF" />
<rect x="142" y="66" width="6" height="19" fill="#E6DDA3" />
<rect x="163" y="66" width="6" height="30" fill="#E6DDA3" />
<rect x="169" y="66" width="3" height="3" fill="#FFFFFF" />
<rect x="66" y="69" width="36" height="3" fill="#FFFFFF" />
<rect x="132" y="69" width="7" height="3" fill="#FFFFFF" />
<rect x="139" y="69" width="3" height="109" fill="#E6DDA3" />
<rect x="169" y="69" width="3" height="106" fill="#E6DDA3" />
<rect x="172" y="69" width="3" height="7" fill="#FFFFFF" />
<rect x="60" y="72" width="9" height="4" fill="#FFFFFF" />
<rect x="69" y="72" width="33" height="57" fill="#E6DDA3" />
<rect x="102" y="72" width="12" height="4" fill="#FFFFFF" />
<rect x="126" y="72" width="6" height="4" fill="#FFFFFF" />
<rect x="132" y="72" width="7" height="106" fill="#E6DDA3" />
<rect x="175" y="72" width="3" height="7" fill="#FFFFFF" />
<rect x="57" y="76" width="6" height="3" fill="#FFFFFF" />
<rect x="63" y="76" width="6" height="47" fill="#E6DDA3" />
<rect x="102" y="76" width="12" height="60" fill="#E6DDA3" />
<rect x="114" y="76" width="15" height="3" fill="#FFFFFF" />
<rect x="129" y="76" width="3" height="107" fill="#E6DDA3" />
<rect x="172" y="76" width="3" height="99" fill="#E6DDA3" />
<rect x="178" y="76" width="3" height="9" fill="#FFFFFF" />
<rect x="54" y="79" width="3" height="6" fill="#FFFFFF" />
<rect x="57" y="79" width="6" height="47" fill="#E6DDA3" />
<rect x="114" y="79" width="15" height="60" fill="#E6DDA3" />
<rect x="175" y="79" width="3" height="99" fill="#E6DDA3" />
<rect x="193" y="79" width="3" height="6" fill="#FFFFFF" />
<rect x="51" y="82" width="3" height="6" fill="#FFFFFF" />
<rect x="181" y="82" width="12" height="3" fill="#FFFFFF" />
<rect x="196" y="82" width="15" height="3" fill="#FFFFFF" />
<rect x="48" y="85" width="3" height="8" fill="#FFFFFF" />
<rect x="54" y="85" width="3" height="41" fill="#E6DDA3" />
<rect x="142" y="85" width="3" height="14" fill="#E6DDA3" />
<rect x="145" y="85" width="15" height="3" fill="#FFFFFF" />
<rect x="178" y="85" width="33" height="27" fill="#E6DDA3" />
<rect x="211" y="85" width="6" height="3" fill="#FFFFFF" />
<rect x="45" y="88" width="3" height="8" fill="#FFFFFF" />
<rect x="51" y="88" width="3" height="38" fill="#E6DDA3" />
<rect x="145" y="88" width="9" height="5" fill="#FFFFFF" />
<rect x="157" y="88" width="6" height="5" fill="#FFFFFF" />
<rect x="211" y="88" width="3" height="21" fill="#E6DDA3" />
<rect x="214" y="88" width="3" height="8" fill="#FFFFFF" />
<rect x="42" y="93" width="3" height="9" fill="#FFFFFF" />
<rect x="48" y="93" width="3" height="33" fill="#E6DDA3" />
<rect x="145" y="93" width="3" height="3" fill="#E6DDA3" />
<rect x="148" y="93" width="3" height="3" fill="#FFFFFF" />
<rect x="160" y="93" width="3" height="3" fill="#FFFFFF" />
<rect x="217" y="93" width="3" height="9" fill="#FFFFFF" />
<rect x="45" y="96" width="3" height="33" fill="#E6DDA3" />
<rect x="145" y="96" width="3" height="6" fill="#FFFFFF" />
<rect x="163" y="96" width="3" height="16" fill="#FFFFFF" />
<rect x="166" y="96" width="3" height="76" fill="#E6DDA3" />
<rect x="214" y="96" width="3" height="6" fill="#E6DDA3" />
<rect x="39" y="99" width="3" height="37" fill="#FFFFFF" />
<rect x="142" y="99" width="3" height="24" fill="#FFFFFF" />
<rect x="42" y="102" width="3" height="27" fill="#E6DDA3" />
<rect x="214" y="102" width="3" height="10" fill="#FFFFFF" />
<rect x="211" y="109" width="3" height="6" fill="#FFFFFF" />
<rect x="160" y="112" width="3" height="6" fill="#FFFFFF" />
<rect x="163" y="112" width="3" height="57" fill="#E6DDA3" />
<rect x="178" y="112" width="30" height="6" fill="#E6DDA3" />
<rect x="208" y="112" width="3" height="6" fill="#FFFFFF" />
<rect x="157" y="115" width="3" height="3" fill="#FFFFFF" />
<rect x="145" y="118" width="3" height="8" fill="#FFFFFF" />
<rect x="151" y="118" width="6" height="5" fill="#FFFFFF" />
<rect x="157" y="118" width="6" height="51" fill="#E6DDA3" />
<rect x="178" y="118" width="27" height="8" fill="#E6DDA3" />
<rect x="205" y="118" width="3" height="11" fill="#FFFFFF" />
<rect x="63" y="123" width="3" height="6" fill="#FFFFFF" />
<rect x="66" y="123" width="3" height="6" fill="#E6DDA3" />
<rect x="142" y="123" width="3" height="52" fill="#E6DDA3" />
<rect x="148" y="123" width="6" height="3" fill="#FFFFFF" />
<rect x="154" y="123" width="3" height="46" fill="#E6DDA3" />
<rect x="48" y="126" width="15" height="3" fill="#FFFFFF" />
<rect x="145" y="126" width="9" height="43" fill="#E6DDA3" />
<rect x="178" y="126" width="24" height="49" fill="#E6DDA3" />
<rect x="202" y="126" width="3" height="13" fill="#FFFFFF" />
<rect x="36" y="129" width="3" height="3" fill="#FFFFFF" />
<rect x="42" y="129" width="6" height="7" fill="#FFFFFF" />
<rect x="66" y="129" width="9" height="3" fill="#FFFFFF" />
<rect x="75" y="129" width="27" height="3" fill="#E6DDA3" />
<rect x="72" y="132" width="9" height="4" fill="#FFFFFF" />
<rect x="81" y="132" width="21" height="4" fill="#E6DDA3" />
<rect x="78" y="136" width="36" height="3" fill="#FFFFFF" />
<rect x="205" y="136" width="3" height="6" fill="#FFFFFF" />
<rect x="111" y="139" width="6" height="3" fill="#FFFFFF" />
<rect x="117" y="139" width="12" height="3" fill="#E6DDA3" />
<rect x="202" y="139" width="3" height="33" fill="#E6DDA3" />
<rect x="208" y="139" width="3" height="3" fill="#FFFFFF" />
<rect x="30" y="142" width="24" height="3" fill="#FFFFFF" />
<rect x="114" y="142" width="6" height="11" fill="#FFFFFF" />
<rect x="120" y="142" width="9" height="44" fill="#E6DDA3" />
<rect x="205" y="142" width="6" height="30" fill="#E6DDA3" />
<rect x="211" y="142" width="6" height="3" fill="#FFFFFF" />
<rect x="24" y="145" width="9" height="3" fill="#FFFFFF" />
<rect x="33" y="145" width="18" height="11" fill="#E6DDA3" />
<rect x="51" y="145" width="6" height="3" fill="#FFFFFF" />
<rect x="211" y="145" width="6" height="21" fill="#E6DDA3" />
<rect x="217" y="145" width="6" height="3" fill="#FFFFFF" />
<rect x="24" y="148" width="6" height="5" fill="#FFFFFF" />
<rect x="30" y="148" width="3" height="5" fill="#E6DDA3" />
<rect x="51" y="148" width="3" height="24" fill="#E6DDA3" />
<rect x="54" y="148" width="6" height="5" fill="#FFFFFF" />
<rect x="111" y="148" width="3" height="8" fill="#FFFFFF" />
<rect x="217" y="148" width="3" height="11" fill="#E6DDA3" />
<rect x="220" y="148" width="3" height="14" fill="#FFFFFF" />
<rect x="27" y="153" width="6" height="3" fill="#FFFFFF" />
<rect x="54" y="153" width="3" height="19" fill="#E6DDA3" />
<rect x="57" y="153" width="6" height="3" fill="#FFFFFF" />
<rect x="75" y="153" width="15" height="3" fill="#FFFFFF" />
<rect x="108" y="153" width="3" height="9" fill="#FFFFFF" />
<rect x="114" y="153" width="6" height="33" fill="#E6DDA3" />
<rect x="30" y="156" width="6" height="3" fill="#FFFFFF" />
<rect x="36" y="156" width="15" height="3" fill="#E6DDA3" />
<rect x="57" y="156" width="3" height="16" fill="#E6DDA3" />
<rect x="60" y="156" width="18" height="3" fill="#FFFFFF" />
<rect x="78" y="156" width="12" height="16" fill="#E6DDA3" />
<rect x="90" y="156" width="3" height="3" fill="#FFFFFF" />
<rect x="111" y="156" width="3" height="30" fill="#E6DDA3" />
<rect x="33" y="159" width="6" height="3" fill="#FFFFFF" />
<rect x="39" y="159" width="12" height="7" fill="#E6DDA3" />
<rect x="60" y="159" width="18" height="10" fill="#E6DDA3" />
<rect x="90" y="159" width="3" height="24" fill="#E6DDA3" />
<rect x="93" y="159" width="3" height="3" fill="#FFFFFF" />
<rect x="217" y="159" width="3" height="10" fill="#FFFFFF" />
<rect x="36" y="162" width="3" height="4" fill="#FFFFFF" />
<rect x="93" y="162" width="3" height="21" fill="#E6DDA3" />
<rect x="96" y="162" width="3" height="4" fill="#FFFFFF" />
<rect x="105" y="162" width="3" height="7" fill="#FFFFFF" />
<rect x="108" y="162" width="3" height="24" fill="#E6DDA3" />
<rect x="39" y="166" width="3" height="3" fill="#FFFFFF" />
<rect x="42" y="166" width="9" height="3" fill="#E6DDA3" />
<rect x="96" y="166" width="3" height="17" fill="#E6DDA3" />
<rect x="99" y="166" width="6" height="3" fill="#FFFFFF" />
<rect x="211" y="166" width="3" height="3" fill="#E6DDA3" />
<rect x="214" y="166" width="3" height="6" fill="#FFFFFF" />
<rect x="42" y="169" width="6" height="3" fill="#FFFFFF" />
<rect x="48" y="169" width="3" height="3" fill="#E6DDA3" />
<rect x="60" y="169" width="18" height="3" fill="#FFFFFF" />
<rect x="99" y="169" width="9" height="17" fill="#E6DDA3" />
<rect x="145" y="169" width="6" height="3" fill="#E6DDA3" />
<rect x="151" y="169" width="15" height="3" fill="#FFFFFF" />
<rect x="211" y="169" width="3" height="3" fill="#FFFFFF" />
<rect x="45" y="172" width="15" height="3" fill="#FFFFFF" />
<rect x="75" y="172" width="9" height="3" fill="#FFFFFF" />
<rect x="84" y="172" width="6" height="3" fill="#E6DDA3" />
<rect x="145" y="172" width="6" height="3" fill="#FFFFFF" />
<rect x="163" y="172" width="6" height="3" fill="#FFFFFF" />
<rect x="202" y="172" width="9" height="3" fill="#FFFFFF" />
<rect x="81" y="175" width="6" height="3" fill="#FFFFFF" />
<rect x="87" y="175" width="3" height="3" fill="#E6DDA3" />
<rect x="142" y="175" width="6" height="3" fill="#FFFFFF" />
<rect x="166" y="175" width="9" height="3" fill="#FFFFFF" />
<rect x="178" y="175" width="21" height="3" fill="#E6DDA3" />
<rect x="199" y="175" width="6" height="3" fill="#FFFFFF" />
<rect x="84" y="178" width="6" height="5" fill="#FFFFFF" />
<rect x="132" y="178" width="4" height="5" fill="#E6DDA3" />
<rect x="136" y="178" width="9" height="5" fill="#FFFFFF" />
<rect x="172" y="178" width="27" height="5" fill="#FFFFFF" />
<rect x="87" y="183" width="12" height="3" fill="#FFFFFF" />
<rect x="129" y="183" width="10" height="3" fill="#FFFFFF" />
<rect x="99" y="186" width="33" height="3" fill="#FFFFFF" />
</svg>